<mxfile host="Electron" modified="2024-08-30T10:13:01.378Z" agent="Mozilla/5.0 (Windows NT 10.0; Win64; x64) AppleWebKit/537.36 (KHTML, like Gecko) draw.io/24.4.8 Chrome/124.0.6367.207 Electron/30.0.6 Safari/537.36" etag="TFR6nZQhmlRhddNTrlws" version="24.4.8" type="device">
  <diagram name="第 1 页" id="LNoIDRjrEfgmtMfUMsYu">
    <mxGraphModel dx="2048" dy="823" grid="1" gridSize="10" guides="1" tooltips="1" connect="1" arrows="1" fold="1" page="1" pageScale="1" pageWidth="827" pageHeight="1169" math="0" shadow="0">
      <root>
        <mxCell id="0" />
        <mxCell id="1" parent="0" />
        <mxCell id="i2Mk7Ut4PP62Th_SLOXA-1" value="" style="rounded=0;whiteSpace=wrap;html=1;" parent="1" vertex="1">
          <mxGeometry x="-300" y="140" width="760" height="400" as="geometry" />
        </mxCell>
        <mxCell id="i2Mk7Ut4PP62Th_SLOXA-2" value="各类选项" style="rounded=0;whiteSpace=wrap;html=1;" parent="1" vertex="1">
          <mxGeometry x="-300" y="140" width="760" height="40" as="geometry" />
        </mxCell>
        <mxCell id="i2Mk7Ut4PP62Th_SLOXA-3" value="&lt;font style=&quot;font-size: 50px;&quot;&gt;List of Tasks&lt;/font&gt;" style="rounded=0;whiteSpace=wrap;html=1;" parent="1" vertex="1">
          <mxGeometry x="-190" y="220" width="630" height="320" as="geometry" />
        </mxCell>
        <mxCell id="i2Mk7Ut4PP62Th_SLOXA-4" style="edgeStyle=orthogonalEdgeStyle;rounded=0;orthogonalLoop=1;jettySize=auto;html=1;exitX=0;exitY=0.5;exitDx=0;exitDy=0;entryX=1;entryY=0.5;entryDx=0;entryDy=0;endArrow=none;endFill=0;" parent="1" source="i2Mk7Ut4PP62Th_SLOXA-3" target="i2Mk7Ut4PP62Th_SLOXA-3" edge="1">
          <mxGeometry relative="1" as="geometry">
            <Array as="points">
              <mxPoint x="350" y="360" />
              <mxPoint x="350" y="360" />
            </Array>
          </mxGeometry>
        </mxCell>
        <mxCell id="i2Mk7Ut4PP62Th_SLOXA-5" style="edgeStyle=orthogonalEdgeStyle;rounded=0;orthogonalLoop=1;jettySize=auto;html=1;exitX=0.5;exitY=0;exitDx=0;exitDy=0;entryX=0.5;entryY=1;entryDx=0;entryDy=0;endArrow=none;endFill=0;" parent="1" source="i2Mk7Ut4PP62Th_SLOXA-3" target="i2Mk7Ut4PP62Th_SLOXA-3" edge="1">
          <mxGeometry relative="1" as="geometry">
            <Array as="points">
              <mxPoint x="125" y="310" />
              <mxPoint x="125" y="310" />
            </Array>
          </mxGeometry>
        </mxCell>
        <mxCell id="i2Mk7Ut4PP62Th_SLOXA-7" value="不紧急" style="rounded=0;whiteSpace=wrap;html=1;" parent="1" vertex="1">
          <mxGeometry x="130" y="180" width="310" height="40" as="geometry" />
        </mxCell>
        <mxCell id="i2Mk7Ut4PP62Th_SLOXA-8" value="紧急" style="rounded=0;whiteSpace=wrap;html=1;" parent="1" vertex="1">
          <mxGeometry x="-190" y="180" width="310" height="40" as="geometry" />
        </mxCell>
        <mxCell id="i2Mk7Ut4PP62Th_SLOXA-9" value="重要" style="rounded=0;whiteSpace=wrap;html=1;" parent="1" vertex="1">
          <mxGeometry x="-300" y="220" width="110" height="140" as="geometry" />
        </mxCell>
        <mxCell id="i2Mk7Ut4PP62Th_SLOXA-10" value="不重要" style="rounded=0;whiteSpace=wrap;html=1;" parent="1" vertex="1">
          <mxGeometry x="-300" y="360" width="110" height="180" as="geometry" />
        </mxCell>
        <mxCell id="i2Mk7Ut4PP62Th_SLOXA-11" value="" style="rounded=0;whiteSpace=wrap;html=1;" parent="1" vertex="1">
          <mxGeometry x="-310" y="630" width="760" height="400" as="geometry" />
        </mxCell>
        <mxCell id="i2Mk7Ut4PP62Th_SLOXA-12" value="各类选项" style="rounded=0;whiteSpace=wrap;html=1;" parent="1" vertex="1">
          <mxGeometry x="-310" y="630" width="760" height="40" as="geometry" />
        </mxCell>
        <mxCell id="i2Mk7Ut4PP62Th_SLOXA-13" value="" style="rounded=0;whiteSpace=wrap;html=1;" parent="1" vertex="1">
          <mxGeometry x="-200" y="710" width="630" height="320" as="geometry" />
        </mxCell>
        <mxCell id="i2Mk7Ut4PP62Th_SLOXA-14" style="edgeStyle=orthogonalEdgeStyle;rounded=0;orthogonalLoop=1;jettySize=auto;html=1;exitX=0;exitY=0.5;exitDx=0;exitDy=0;entryX=1;entryY=0.5;entryDx=0;entryDy=0;endArrow=none;endFill=0;" parent="1" source="i2Mk7Ut4PP62Th_SLOXA-13" target="i2Mk7Ut4PP62Th_SLOXA-13" edge="1">
          <mxGeometry relative="1" as="geometry">
            <Array as="points">
              <mxPoint x="340" y="850" />
              <mxPoint x="340" y="850" />
            </Array>
          </mxGeometry>
        </mxCell>
        <mxCell id="i2Mk7Ut4PP62Th_SLOXA-15" style="edgeStyle=orthogonalEdgeStyle;rounded=0;orthogonalLoop=1;jettySize=auto;html=1;exitX=0.5;exitY=0;exitDx=0;exitDy=0;entryX=0.5;entryY=1;entryDx=0;entryDy=0;endArrow=none;endFill=0;" parent="1" source="i2Mk7Ut4PP62Th_SLOXA-13" target="i2Mk7Ut4PP62Th_SLOXA-13" edge="1">
          <mxGeometry relative="1" as="geometry">
            <Array as="points">
              <mxPoint x="115" y="800" />
              <mxPoint x="115" y="800" />
            </Array>
          </mxGeometry>
        </mxCell>
        <mxCell id="i2Mk7Ut4PP62Th_SLOXA-16" value="不紧急" style="rounded=0;whiteSpace=wrap;html=1;" parent="1" vertex="1">
          <mxGeometry x="120" y="670" width="310" height="40" as="geometry" />
        </mxCell>
        <mxCell id="i2Mk7Ut4PP62Th_SLOXA-17" value="紧急" style="rounded=0;whiteSpace=wrap;html=1;" parent="1" vertex="1">
          <mxGeometry x="-200" y="670" width="310" height="40" as="geometry" />
        </mxCell>
        <mxCell id="i2Mk7Ut4PP62Th_SLOXA-18" value="重要" style="rounded=0;whiteSpace=wrap;html=1;" parent="1" vertex="1">
          <mxGeometry x="-310" y="710" width="110" height="140" as="geometry" />
        </mxCell>
        <mxCell id="i2Mk7Ut4PP62Th_SLOXA-19" value="不重要" style="rounded=0;whiteSpace=wrap;html=1;" parent="1" vertex="1">
          <mxGeometry x="-310" y="850" width="110" height="180" as="geometry" />
        </mxCell>
        <mxCell id="i2Mk7Ut4PP62Th_SLOXA-20" value="任务列表由多个单行Func堆叠实现&lt;div&gt;每个Func在界面展现为单行文本域&lt;/div&gt;&lt;div&gt;鼠标移动在上面放大一点点，调整一些属性&lt;/div&gt;&lt;div&gt;点击可以进入任务卡片&lt;/div&gt;" style="text;html=1;align=center;verticalAlign=middle;resizable=0;points=[];autosize=1;strokeColor=none;fillColor=none;" parent="1" vertex="1">
          <mxGeometry x="495" y="365" width="250" height="70" as="geometry" />
        </mxCell>
        <mxCell id="i2Mk7Ut4PP62Th_SLOXA-22" value="星状图展示：&lt;div&gt;按照具体的紧急度值和重要度值线性分布&lt;/div&gt;&lt;div&gt;图标由小圆点、小心心、小爱心、太阳、月亮&lt;/div&gt;&lt;div&gt;表示任务强度或者按一定规则表示某些东西&lt;/div&gt;" style="text;html=1;align=center;verticalAlign=middle;resizable=0;points=[];autosize=1;strokeColor=none;fillColor=none;" parent="1" vertex="1">
          <mxGeometry x="460" y="768" width="260" height="70" as="geometry" />
        </mxCell>
        <mxCell id="i2Mk7Ut4PP62Th_SLOXA-23" value="" style="ellipse;whiteSpace=wrap;html=1;aspect=fixed;fillColor=#0050ef;fontColor=#ffffff;strokeColor=#001DBC;" parent="1" vertex="1">
          <mxGeometry x="-90" y="805" width="10" height="10" as="geometry" />
        </mxCell>
        <mxCell id="i2Mk7Ut4PP62Th_SLOXA-24" value="" style="ellipse;whiteSpace=wrap;html=1;aspect=fixed;fillColor=#0050ef;fontColor=#ffffff;strokeColor=#001DBC;" parent="1" vertex="1">
          <mxGeometry x="-120" y="750" width="10" height="10" as="geometry" />
        </mxCell>
        <mxCell id="i2Mk7Ut4PP62Th_SLOXA-25" value="" style="ellipse;whiteSpace=wrap;html=1;aspect=fixed;fillColor=#0050ef;fontColor=#ffffff;strokeColor=#001DBC;" parent="1" vertex="1">
          <mxGeometry x="-140" y="980" width="10" height="10" as="geometry" />
        </mxCell>
        <mxCell id="i2Mk7Ut4PP62Th_SLOXA-26" value="" style="ellipse;whiteSpace=wrap;html=1;aspect=fixed;fillColor=#0050ef;fontColor=#ffffff;strokeColor=#001DBC;" parent="1" vertex="1">
          <mxGeometry x="230" y="770" width="10" height="10" as="geometry" />
        </mxCell>
        <mxCell id="i2Mk7Ut4PP62Th_SLOXA-27" value="" style="ellipse;whiteSpace=wrap;html=1;aspect=fixed;fillColor=#0050ef;fontColor=#ffffff;strokeColor=#001DBC;" parent="1" vertex="1">
          <mxGeometry x="-50" y="845" width="10" height="10" as="geometry" />
        </mxCell>
        <mxCell id="i2Mk7Ut4PP62Th_SLOXA-28" value="" style="ellipse;whiteSpace=wrap;html=1;aspect=fixed;fillColor=#0050ef;fontColor=#ffffff;strokeColor=#001DBC;" parent="1" vertex="1">
          <mxGeometry x="-80" y="790" width="10" height="10" as="geometry" />
        </mxCell>
        <mxCell id="i2Mk7Ut4PP62Th_SLOXA-29" value="" style="ellipse;whiteSpace=wrap;html=1;aspect=fixed;fillColor=#0050ef;fontColor=#ffffff;strokeColor=#001DBC;" parent="1" vertex="1">
          <mxGeometry x="230" y="930" width="10" height="10" as="geometry" />
        </mxCell>
        <mxCell id="1KwyCi4Zkc4H9cAo6NpU-1" value="选项包括：计划调度相关，任务相关" style="whiteSpace=wrap;html=1;" vertex="1" parent="1">
          <mxGeometry x="20" y="30" width="120" height="60" as="geometry" />
        </mxCell>
      </root>
    </mxGraphModel>
  </diagram>
</mxfile>
